<svg xmlns="http://www.w3.org/2000/svg" viewBox="0 0 1200 720" font-family="Georgia,'Times New Roman',serif">
  <defs>
    <radialGradient id="bg2" cx="50%" cy="30%" r="90%">
      <stop offset="0%" stop-color="#0c1620"/><stop offset="100%" stop-color="#05080d"/>
    </radialGradient>
    <linearGradient id="acc" x1="0" y1="0" x2="1" y2="0">
      <stop offset="0%" stop-color="#2dd4bf"/><stop offset="100%" stop-color="#0e6e62"/>
    </linearGradient>
    <style>.mono{font-family:'SF Mono','Menlo',monospace;} .h{fill:#e9f7f4;}</style>
  </defs>
  <rect width="1200" height="720" fill="url(#bg2)"/>
  <rect x="26" y="26" width="1148" height="668" fill="none" stroke="#1f4d4a" opacity="0.5"/>

  <text x="60" y="78" class="mono" font-size="13" letter-spacing="6" fill="#3f7d76">WHY A PROMPT ISN'T ENOUGH · DETERMINISTIC ENFORCEMENT</text>
  <text x="58" y="128" font-size="40" class="h">A prompt <tspan font-style="italic" fill="#8fc7bf">requests</tspan> discipline. Verity <tspan fill="#2dd4bf">enforces</tspan> it.</text>
  <text x="60" y="160" font-size="18" fill="#7fb3ab">LLMs are probabilistic — you can't trust them to opt into good behavior. So the harness, not the model, decides when discipline fires.</text>

  <!-- left: prompt doctrine -->
  <g>
    <text x="60" y="232" class="mono" font-size="14" letter-spacing="4" fill="#5b6b78">PROMPT DOCTRINE  ·  HOPES</text>
    <g font-size="17" fill="#9fb0bb">
      <rect x="60" y="252" width="480" height="58" rx="4" fill="#0e1822" stroke="#243440"/>
      <text x="78" y="278" class="mono" font-size="13" fill="#7d8d98">"verify before you act"</text>
      <text x="78" y="298" font-style="italic" font-size="14" fill="#6b7c87">…model may or may not. No backstop.</text>
      <rect x="60" y="320" width="480" height="58" rx="4" fill="#0e1822" stroke="#243440"/>
      <text x="78" y="346" class="mono" font-size="13" fill="#7d8d98">"don't give up"</text>
      <text x="78" y="366" font-style="italic" font-size="14" fill="#6b7c87">…quits at the first wall anyway.</text>
      <rect x="60" y="388" width="480" height="58" rx="4" fill="#0e1822" stroke="#243440"/>
      <text x="78" y="414" class="mono" font-size="13" fill="#7d8d98">"reuse existing tools"</text>
      <text x="78" y="434" font-style="italic" font-size="14" fill="#6b7c87">…reinvents from scratch when it forgets.</text>
    </g>
  </g>

  <!-- right: verity gates -->
  <g>
    <text x="640" y="232" class="mono" font-size="14" letter-spacing="4" fill="#2dd4bf">VERITY · RUNTIME GATES · FIRE ON CODE CONDITIONS</text>
    <g class="mono" font-size="13.5">
      <g>
        <rect x="640" y="252" width="500" height="60" rx="4" fill="#0c1d1b" stroke="#1f5c54"/>
        <rect x="640" y="252" width="5" height="60" fill="url(#acc)"/>
        <text x="662" y="278" fill="#5eead4">VERIFY GATE</text>
        <text x="662" y="299" fill="#86bfb6" font-size="13">every action adversarially checked — did it REALLY work?</text>
      </g>
      <g>
        <rect x="640" y="320" width="500" height="60" rx="4" fill="#0c1d1b" stroke="#1f5c54"/>
        <rect x="640" y="320" width="5" height="60" fill="url(#acc)"/>
        <text x="662" y="346" fill="#5eead4">CALIBRATION GATE</text>
        <text x="662" y="367" fill="#86bfb6" font-size="13">challenges every "done" → tags VERIFIED vs GUESS</text>
      </g>
      <g>
        <rect x="640" y="388" width="500" height="60" rx="4" fill="#0c1d1b" stroke="#1f5c54"/>
        <rect x="640" y="388" width="5" height="60" fill="url(#acc)"/>
        <text x="662" y="414" fill="#5eead4">PERSISTENCE GATE</text>
        <text x="662" y="435" fill="#86bfb6" font-size="13">refuses to abort — forces a different approach, N times</text>
      </g>
      <g>
        <rect x="640" y="456" width="500" height="60" rx="4" fill="#0c1d1b" stroke="#1f5c54"/>
        <rect x="640" y="456" width="5" height="60" fill="url(#acc)"/>
        <text x="662" y="482" fill="#5eead4">RESEARCH-ON-STUCK</text>
        <text x="662" y="503" fill="#86bfb6" font-size="13">auto-searches GitHub/Reddit/HN/SO on the real error</text>
      </g>
      <g>
        <rect x="640" y="524" width="500" height="60" rx="4" fill="#0c1d1b" stroke="#1f5c54"/>
        <rect x="640" y="524" width="5" height="60" fill="url(#acc)"/>
        <text x="662" y="550" fill="#5eead4">REUSE-FIRST DISCOVERY</text>
        <text x="662" y="571" fill="#86bfb6" font-size="13">own tools → external → build; auto-fires on build tasks</text>
      </g>
    </g>
  </g>

  <line x1="60" y1="624" x2="1140" y2="624" stroke="#1f4d4a"/>
  <text x="60" y="664" font-size="20" font-style="italic" fill="#8fc7bf">The model reasons inside rails it cannot fall off of.</text>
  <text x="1140" y="664" text-anchor="end" class="mono" font-size="13" letter-spacing="2" fill="#3f7d76">probabilistic core · deterministic rails</text>
</svg>
